<svg 
xmlns="http://www.w3.org/2000/svg" 
xmlns:xlink="http://www.w3.org/1999/xlink" 
version="1.1" x="0px" y="0px" viewBox="0 0 24 30" 
style="enable-background:new 0 0 24 24;" 
xml:space="preserve">
<path d="M21.034,11.626l-6.569-1.252c-0.04-0.007-0.077-0.01-0.116-0.016l2.505-2.504C16.947,7.76,17,7.633,17,7.5V4.707  l2.854-2.854c0.195-0.195,0.195-0.512,0-0.707s-0.512-0.195-0.707,0l-3,3C16.053,4.24,16,4.367,16,4.5v2.793l-2,2V7.5  c0-0.649-0.42-1.2-1-1.407V3.5C13,3.225,12.775,3,12.5,3S12,3.225,12,3.5v2.593C11.42,6.3,11,6.851,11,7.5v1.793l-2-2V4.5  c0-0.133-0.053-0.26-0.146-0.354l-3-3c-0.195-0.195-0.512-0.195-0.707,0s-0.195,0.512,0,0.707L8,4.707V7.5  c0,0.133,0.053,0.26,0.146,0.354l2.505,2.505c-0.04,0.006-0.077,0.008-0.117,0.016l-6.569,1.251C2.885,11.832,2.001,12.45,2,13  s0.873,1.219,1.94,1.485l0.119,0.029c0.762,0.19,1.837,0.161,2.756-0.037l-2.669,2.669c-0.195,0.195-0.195,0.512,0,0.707  C4.244,17.951,4.372,18,4.5,18s0.256-0.049,0.354-0.146L9,13.707v1.66l-3.934,6.885c-0.137,0.239-0.054,0.545,0.186,0.683  C5.33,22.979,5.416,23,5.5,23c0.174,0,0.342-0.091,0.435-0.252l4-7C9.977,15.673,10,15.587,10,15.5v-2.347l0.684-0.315  c0.108-0.05,0.213-0.106,0.316-0.164c0,0,0,3.451,0,4.826s0.675,2.5,1.5,2.5s1.5-1.125,1.5-2.5s0-4.826,0-4.826  c0.104,0.058,0.208,0.114,0.316,0.164L15,13.153V15.5c0,0.087,0.022,0.173,0.065,0.248l4,7C19.158,22.909,19.327,23,19.5,23  c0.085,0,0.17-0.021,0.248-0.065c0.24-0.138,0.323-0.443,0.187-0.683L16,15.367v-1.66l4.146,4.146C20.244,17.951,20.372,18,20.5,18  s0.256-0.049,0.354-0.146c0.195-0.195,0.195-0.512,0-0.707l-2.669-2.669c0.919,0.198,1.994,0.228,2.756,0.037l0.119-0.029  C22.127,14.219,23,13.55,23,13C22.999,12.45,22.115,11.832,21.034,11.626z"/>
<text x="0" y="39" fill="#000000" font-size="5px" font-weight="bold" font-family="'Helvetica Neue', Helvetica, Arial-Unicode, Arial, Sans-serif">Created by Rflor</text><text x="0" y="44" fill="#000000" font-size="5px" font-weight="bold" font-family="'Helvetica Neue', Helvetica, Arial-Unicode, Arial, Sans-serif">from the Noun Project
</text>
</svg>