<svg 
  xmlns="http://www.w3.org/2000/svg" 
  xmlns:xlink="http://www.w3.org/1999/xlink" 
  version="1.2" 
  baseProfile="tiny" 
  x="0px" 
  y="0px" 
  viewBox="0 0 32 40" 
  xml:space="preserve">
  <path 
    d="M24.66,10.747c2.137,1.406,5.68,5.735,6.241,7.421c0.562,1.688-1.462,0.787-1.462,0.787  c-7.813-2.811-11.188-7.534-11.301-7.617c-0.111-0.085,1.575,6.887,1.701,7.224c0.127,0.338,3.289,5.86,3.317,5.959  c0.027,0.1,3.78,3.71,3.78,3.71l2.474,1.251c0,0-1.743-0.464-2.418-0.801c-0.674-0.337-4.215-3.878-4.215-3.878  s-3.626-6.178-3.626-6.346c0-0.169-0.718-2.341-1.056-3.795c-0.337-1.456-0.758-2.826-0.758-2.826  c-0.444,1.16-3.374,2.13-3.374,2.13l-0.8,4.047l-2.657,6.852l-3.331,3.311L3.74,29.565l3.226-1.623l3.184-3.267  c0.401-0.379,2.614-6.788,2.614-6.788l0.59-3.816c-0.907,0.127-1.497-0.591-1.497-0.591l-1.94,3.816l-4.301,4.259L1,24.085  l4.448-2.762c0,0,4.048-4.237,4.132-4.259c0.084-0.021,1.799-3.969,1.799-3.969s-0.619-0.184-0.829-0.184  c-0.211,0-0.211-0.716-0.155,0.295c0.056,1.012-1.448,1.518-1.448,1.518c-0.8,0.845-4.891,4.302-4.891,4.302  c0.59-0.085,4.175-4.196,4.175-4.196c-0.633-0.275-0.717-0.97-0.717-0.97c-0.59,0.168-1.054-0.063-1.054-0.063  c0.295,0.127,0.927-0.042,0.927-0.042c-0.337-1.013,0.211-1.644,0.211-1.644c-1.012-1.139-1.307-5.988-1.307-5.988  c0,0.718,1.391,5.776,1.391,5.776c1.012-0.633,1.982,0,1.982,0l0.38-0.758c0,0,0.084-0.337,0.421-1.392  c0.337-1.054,2.403-2.108,3.753-2.361c1.349-0.253,1.095-0.591,6.788-2.741c5.691-2.15,6.24-1.264,8.179-0.252  c1.939,1.012,2.32,1.771-0.252,2.234C26.36,7.093,16.958,8.063,16.958,8.063C20.22,8.021,22.524,9.342,24.66,10.747z"/>
  <text 
    x="0" 
    y="47" 
    fill="#000000" 
    font-size="5px" 
    font-weight="bold" font-family="'Helvetica Neue', Helvetica, Arial-Unicode, Arial, Sans-serif">Created by YuguDesign </text><text x="0" y="52" fill="#000000" font-size="5px" font-weight="bold" font-family="'Helvetica Neue', Helvetica, Arial-Unicode, Arial, Sans-serif">
from the Noun Project
</text>
</svg>