<svg xmlns="http://www.w3.org/2000/svg" xmlns:xlink="http://www.w3.org/1999/xlink" version="1.1" x="0px" y="0px" viewBox="0 0 100 125" enable-background="new 0 0 100 100" xml:space="preserve"><g><path d="M60.379,50.815l-15.406,8.31c1.491,0.823,3.204,1.295,5.028,1.295C55.479,60.42,59.962,56.188,60.379,50.815z"/><path d="M39.621,49.184l15.406-8.31C53.536,40.051,51.824,39.58,50,39.58C44.521,39.58,40.038,43.812,39.621,49.184z"/><path d="M34.227,52.094c-0.09-0.687-0.153-1.382-0.153-2.094c0-8.796,7.13-15.926,15.926-15.926c3.986,0,7.621,1.475,10.415,3.895   l9.774-5.272c-6.021-2.92-12.891-5.03-20.189-5.03c-18.295,0-33.922,13.244-40.141,19.335c-1.685,1.65-1.685,4.347,0,5.998   c2.018,1.976,5.032,4.706,8.801,7.492L34.227,52.094z"/><path d="M90.141,47.001c-2.018-1.976-5.032-4.706-8.801-7.492l-15.567,8.397c0.09,0.687,0.153,1.383,0.153,2.094   c0,8.796-7.13,15.926-15.926,15.926c-3.986,0-7.621-1.475-10.415-3.895l-9.774,5.272c6.021,2.92,12.891,5.03,20.189,5.03   c18.295,0,33.922-13.244,40.141-19.335C91.826,51.349,91.826,48.651,90.141,47.001z"/><path d="M88.829,29.056c-0.694-1.285-2.299-1.765-3.583-1.072L12.244,67.36c-1.285,0.694-1.765,2.298-1.072,3.583   c0.478,0.887,1.389,1.39,2.33,1.39c0.424,0,0.854-0.102,1.253-0.318L87.756,32.64C89.042,31.946,89.522,30.342,88.829,29.056z"/></g><text x="0" y="115" fill="#000000" font-size="5px" font-weight="bold" font-family="'Helvetica Neue', Helvetica, Arial-Unicode, Arial, Sans-serif">Created by Felipe Santana</text><text x="0" y="120" fill="#000000" font-size="5px" font-weight="bold" font-family="'Helvetica Neue', Helvetica, Arial-Unicode, Arial, Sans-serif">from the Noun Project</text></svg>