<svg xmlns="http://www.w3.org/2000/svg" xmlns:xlink="http://www.w3.org/1999/xlink" version="1.1" x="0px" y="0px" viewBox="0 0 100 125" enable-background="new 0 0 100 100" xml:space="preserve">
<g>
  <path d="M76.876,34.707c-10.01,0-18.124,8.115-18.124,18.124c0,10.01,8.115,18.124,18.124,18.124S95,62.841,95,52.831   C95,42.821,86.885,34.707,76.876,34.707z M76.876,67.803c-8.269,0-14.972-6.703-14.972-14.972c0-8.269,6.703-14.972,14.972-14.972   s14.972,6.703,14.972,14.972C91.848,61.1,85.145,67.803,76.876,67.803z"/>
  <g>
  <path d="M61.574,35.396c-0.204,0.201-0.391,0.42-0.564,0.655C61.183,35.817,61.37,35.598,61.574,35.396z"/>
  <path d="M53.528,51.132l5.887-14.298c0.285-0.693,0.688-1.308,1.166-1.847c-0.693-0.192-1.388-0.373-2.088-0.526    c-1.49-3.198-4.732-5.416-8.493-5.416s-7.003,2.218-8.493,5.416c-0.7,0.154-1.395,0.334-2.088,0.526    c0.477,0.539,0.88,1.153,1.166,1.847l5.887,14.298c0.041,0.099,0.071,0.201,0.107,0.301c2.268-0.358,4.575-0.358,6.843,0    C53.458,51.333,53.487,51.231,53.528,51.132z M50,36.198c-1.135,0-2.055-0.92-2.055-2.055c0-1.135,0.92-2.055,2.055-2.055    s2.055,0.92,2.055,2.055C52.055,35.278,51.135,36.198,50,36.198z"/>
  <path d="M60.852,36.274c-0.194,0.294-0.372,0.603-0.511,0.941C60.479,36.877,60.657,36.568,60.852,36.274z"/>
  <path d="M39.66,37.215c-0.139-0.338-0.317-0.646-0.511-0.94C39.343,36.568,39.521,36.877,39.66,37.215z"/>
  <path d="M38.989,36.051c-0.172-0.234-0.359-0.453-0.563-0.654C38.63,35.598,38.817,35.817,38.989,36.051z"/></g>
  <path d="M23.124,34.707C13.115,34.707,5,42.821,5,52.831c0,10.01,8.115,18.124,18.124,18.124s18.124-8.115,18.124-18.124   C41.249,42.821,33.134,34.707,23.124,34.707z M23.124,67.803c-8.269,0-14.972-6.703-14.972-14.972   c0-8.269,6.703-14.972,14.972-14.972s14.972,6.703,14.972,14.972C38.096,61.1,31.393,67.803,23.124,67.803z"/></g>
  <g>
  <path d="M59.617,47.303c-0.051,0.158-0.092,0.32-0.139,0.481C59.525,47.623,59.566,47.461,59.617,47.303z"/>
  <path d="M58.9,50.616c-0.021,0.173-0.047,0.345-0.063,0.52C58.853,50.961,58.879,50.789,58.9,50.616z"/>
  <path d="M59.191,48.902c-0.041,0.187-0.079,0.374-0.115,0.563C59.111,49.276,59.149,49.088,59.191,48.902z"/>
  <path d="M60.206,45.713c-0.01,0.024-0.023,0.047-0.033,0.071C60.183,45.76,60.196,45.737,60.206,45.713z"/>
  <path d="M61.121,43.892c-0.084,0.148-0.172,0.293-0.252,0.444C60.95,44.185,61.037,44.04,61.121,43.892z"/>
  <path d="M59.118,56.473c0.063,0.308,0.154,0.606,0.232,0.908C59.272,57.079,59.181,56.782,59.118,56.473z"/>
  <path d="M58.845,54.679c0.025,0.251,0.077,0.494,0.113,0.742C58.922,55.173,58.87,54.93,58.845,54.679z"/>
  <path d="M59.562,58.204c0.096,0.311,0.22,0.609,0.332,0.913C59.782,58.814,59.659,58.515,59.562,58.204z"/>
  <path d="M66.971,37.663c-0.159,0.104-0.314,0.21-0.469,0.319C66.657,37.873,66.813,37.767,66.971,37.663z"/>
  <path d="M62.009,42.48c-0.107,0.153-0.21,0.307-0.312,0.464C61.799,42.788,61.903,42.633,62.009,42.48z"/>
  <path d="M68.356,36.837c-0.144,0.077-0.283,0.162-0.425,0.243C68.072,36.999,68.211,36.914,68.356,36.837z"/>
  <path d="M57.751,52.831c0-8.025,4.974-14.899,11.996-17.732l-2.177-0.896c-2.828-1.165-6.066,0.184-7.23,3.013l-5.887,14.298   c-1.165,2.828,0.184,6.066,3.013,7.23l1.451,0.597C58.176,57.305,57.751,55.119,57.751,52.831z"/>
  <path d="M69.999,36.066c-0.067,0.028-0.138,0.049-0.204,0.078C69.861,36.115,69.931,36.094,69.999,36.066z"/>
  <path d="M62.983,41.2c-0.104,0.125-0.201,0.255-0.302,0.382C62.782,41.455,62.879,41.325,62.983,41.2z"/>
  <path d="M65.629,38.634c-0.136,0.108-0.275,0.213-0.408,0.325C65.354,38.848,65.493,38.742,65.629,38.634z"/>
  <path d="M64.047,40.03c0.037-0.037,0.078-0.071,0.116-0.108C64.125,39.959,64.084,39.992,64.047,40.03z"/></g>
  <g>
  <path d="M40.924,49.465c-0.036-0.189-0.073-0.376-0.115-0.563C40.851,49.088,40.889,49.276,40.924,49.465z"/>
  <path d="M40.522,47.784c-0.046-0.16-0.088-0.322-0.139-0.481C40.434,47.461,40.475,47.623,40.522,47.784z"/>
  <path d="M41.163,51.136c-0.016-0.175-0.042-0.346-0.063-0.52C41.121,50.789,41.147,50.961,41.163,51.136z"/>
  <path d="M39.827,45.784c-0.01-0.024-0.023-0.047-0.033-0.071C39.804,45.737,39.817,45.76,39.827,45.784z"/>
  <path d="M38.303,42.944c-0.102-0.156-0.206-0.311-0.312-0.464C38.097,42.633,38.201,42.788,38.303,42.944z"/>
  <path d="M39.13,44.336c-0.08-0.151-0.167-0.296-0.252-0.444C38.963,44.04,39.05,44.185,39.13,44.336z"/>
  <path d="M40.649,57.382c0.078-0.303,0.17-0.6,0.232-0.908C40.819,56.782,40.728,57.079,40.649,57.382z"/>
  <path d="M41.043,55.421c0.036-0.248,0.087-0.491,0.113-0.742C41.13,54.93,41.078,55.173,41.043,55.421z"/>
  <path d="M33.498,37.981c-0.155-0.108-0.31-0.215-0.469-0.319C33.187,37.766,33.343,37.873,33.498,37.981z"/>
  <path d="M32.07,37.08c-0.142-0.081-0.281-0.166-0.425-0.243C31.789,36.914,31.928,36.999,32.07,37.08z"/>
  <path d="M30.206,36.144c-0.067-0.028-0.137-0.05-0.204-0.078C30.069,36.094,30.139,36.115,30.206,36.144z"/>
  <path d="M45.547,51.513L39.66,37.215c-1.165-2.828-4.402-4.177-7.23-3.013l-2.177,0.896c7.022,2.833,11.996,9.708,11.996,17.732   c0,2.288-0.425,4.474-1.165,6.509l1.451-0.597C45.363,57.578,46.712,54.341,45.547,51.513z"/>
  <path d="M35.837,39.922c0.038,0.037,0.079,0.07,0.116,0.108C35.916,39.992,35.875,39.959,35.837,39.922z"/>
  <path d="M34.779,38.96c-0.133-0.112-0.271-0.217-0.407-0.325C34.507,38.743,34.646,38.848,34.779,38.96z"/>
  <path d="M37.319,41.582c-0.101-0.127-0.198-0.258-0.302-0.382C37.121,41.325,37.218,41.455,37.319,41.582z"/>
  <path d="M40.099,59.135c0.115-0.309,0.241-0.614,0.339-0.931C40.34,58.521,40.214,58.826,40.099,59.135z"/></g>
  <text x="0" y="115" fill="#000000" font-size="5px" font-weight="bold" font-family="'Helvetica Neue', Helvetica, Arial-Unicode, Arial, Sans-serif">Created by Javier Calvo Patiño</text>
  <text x="0" y="120" fill="#000000" font-size="5px" font-weight="bold" font-family="'Helvetica Neue', Helvetica, Arial-Unicode, Arial, Sans-serif">from the Noun Project</text></svg>